<?xml version="1.0" encoding="utf-8"?>
<!-- Generator: Adobe Illustrator 16.0.0, SVG Export Plug-In . SVG Version: 6.00 Build 0)  -->
<!DOCTYPE svg PUBLIC "-//W3C//DTD SVG 1.1//EN" "http://www.w3.org/Graphics/SVG/1.1/DTD/svg11.dtd">
<svg version="1.1" id="Layer_1" xmlns="http://www.w3.org/2000/svg" xmlns:xlink="http://www.w3.org/1999/xlink" x="0px" y="0px"
	 width="156.058px" height="21px" viewBox="0 0 156.058 21" enable-background="new 0 0 156.058 21" xml:space="preserve">
<path fill="#848586" d="M49.527,1.68c-0.85,0.531-1.791,0.919-2.795,1.127c-0.8-0.902-1.942-1.467-3.209-1.467
	c-2.43,0-4.398,2.076-4.398,4.641c0,0.363,0.038,0.716,0.113,1.057c-3.657-0.195-6.898-2.039-9.067-4.848
	c-0.378,0.686-0.595,1.482-0.595,2.333c0,1.609,0.777,3.027,1.957,3.857c-0.721-0.022-1.399-0.232-1.993-0.578V7.86
	c0,2.246,1.517,4.121,3.529,4.546c-0.37,0.106-0.759,0.163-1.16,0.163c-0.282,0-0.558-0.027-0.827-0.083
	c0.561,1.844,2.184,3.186,4.109,3.223c-1.506,1.245-3.402,1.985-5.465,1.985c-0.355,0-0.704-0.021-1.049-0.066
	c1.947,1.316,4.26,2.084,6.743,2.084c8.091,0,12.517-7.066,12.517-13.195c0-0.201-0.004-0.401-0.013-0.6
	c0.858-0.654,1.606-1.47,2.196-2.401c-0.791,0.37-1.637,0.619-2.527,0.73C48.503,3.672,49.199,2.765,49.527,1.68"/>
<path fill="#848586" d="M10.009,19.673h3.811v-9.242h2.94l0.361-3.256h-3.302V5.15c0-0.719,0.299-0.783,0.661-0.783h2.59V1.201
	L14.01,1.189c-3.397,0-4.001,2.362-4.001,3.874v2.111H7.874v3.256h2.135V19.673z"/>
<path fill="#848586" d="M108.402,1.162H97.117c-1.961,0-3.553,1.592-3.553,3.552v3.752v7.528c0,1.962,1.592,3.552,3.553,3.552
	h11.285c1.961,0,3.557-1.59,3.557-3.552V8.466V4.714C111.959,2.754,110.363,1.162,108.402,1.162 M109.422,3.282l0.408-0.004v0.407
	v2.71l-3.106,0.01l-0.013-3.115L109.422,3.282z M100.135,8.466c0.59-0.812,1.546-1.347,2.627-1.347c1.079,0,2.034,0.534,2.624,1.347
	c0.384,0.533,0.613,1.186,0.613,1.889c0,1.783-1.453,3.236-3.237,3.236c-1.785,0-3.24-1.453-3.24-3.236
	C99.521,9.651,99.754,8.999,100.135,8.466 M110.168,15.994c0,0.972-0.793,1.762-1.766,1.762H97.117c-0.971,0-1.762-0.79-1.762-1.762
	V8.466h2.748c-0.238,0.586-0.373,1.223-0.373,1.889c0,2.771,2.258,5.027,5.031,5.027s5.029-2.256,5.029-5.027
	c0-0.666-0.134-1.303-0.372-1.889h2.749V15.994z"/>
<path fill="#848586" d="M135.979,12.769c-0.551,0-0.975-1.534-1.605-4.217c-0.654-2.775-0.65-7.772-3.363-7.207
	c-2.559,0.534-5.92,4.807-5.92,4.807l0.801,1.119c0,0,1.658-1.387,2.209-0.693c0.553,0.693,2.66,9.074,3.363,10.621
	c0.617,1.356,2.307,3.15,4.165,1.869c1.857-1.279,8.028-6.887,9.134-13.506c1.104-6.616-7.43-5.23-8.332,0.535
	c2.26-1.443,3.463,0.584,2.309,2.882C137.586,11.273,136.531,12.769,135.979,12.769"/>
<path fill="#848586" d="M66.984,17.054c0.182,0.445,0.506,0.865,0.979,1.262c0.468,0.392,1.034,0.695,1.699,0.912
	c0.664,0.211,1.175,0.318,2.04,0.318c0.763,0,1.472-0.075,2.128-0.225c0.655-0.15,1.388-0.41,2.195-0.783v-2.915
	c-0.948,0.607-1.9,0.912-2.858,0.912c-0.54,0-1.343-0.122-1.763-0.368c-0.316-0.181-0.546-0.495-0.661-0.797
	c-0.114-0.305,0-0.922,0-1.995V8.321h4.54V5.021h-4.377V1.06h-2.688c-0.122,0.955-0.343,1.738-0.665,2.356
	c-0.32,0.618-0.746,1.146-1.276,1.588c-0.53,0.439-1.393,0.778-2.135,1.014v2.304h2.64v6.797
	C66.781,15.964,66.803,16.609,66.984,17.054"/>
</svg>
